PathFileType	4	(X/Y/Z)	Kaydara	
DataRate	CameraRate	NumFrames	NumMarkers	Units	OrigDataRate	OrigDataStartFrame	OrigNumFrames	
240.00	240.00	4	72	mm	240.00	222	355	
Frame#	Time	Hips			RightUpLeg			RightLeg			RightFoot			RightFoot_End			LeftUpLeg			LeftLeg			LeftFoot			LeftFoot_End			Spine			Spine1			Spine2			Spine3			Neck			Head			Head_End			RightShoulder			RightArm			RightForeArm			RightHand			RightHandThumb1			RightHandThumb2			RightHandThumb3			RightHandThumb3_End			RightInHandIndex			RightHandIndex1			RightHandIndex2			RightHandIndex3			RightHandIndex3_End			RightInHandMiddle			RightHandMiddle1			RightHandMiddle2			RightHandMiddle3			RightHandMiddle3_End			RightInHandRing			RightHandRing1			RightHandRing2			RightHandRing3			RightHandRing3_End			RightInHandPinky			RightHandPinky1			RightHandPinky2			RightHandPinky3			RightHandPinky3_End			LeftShoulder			LeftArm			LeftForeArm			LeftHand			LeftHandThumb1			LeftHandThumb2			LeftHandThumb3			LeftHandThumb3_End			LeftInHandIndex			LeftHandIndex1			LeftHandIndex2			LeftHandIndex3			LeftHandIndex3_End			LeftInHandMiddle			LeftHandMiddle1			LeftHandMiddle2			LeftHandMiddle3			LeftHandMiddle3_End			LeftInHandRing			LeftHandRing1			LeftHandRing2			LeftHandRing3			LeftHandRing3_End			LeftInHandPinky			LeftHandPinky1			LeftHandPinky2			LeftHandPinky3			LeftHandPinky3_End			
		X1	Y1	Z1	X2	Y2	Z2	X3	Y3	Z3	X4	Y4	Z4	X5	Y5	Z5	X6	Y6	Z6	X7	Y7	Z7	X8	Y8	Z8	X9	Y9	Z9	X10	Y10	Z10	X11	Y11	Z11	X12	Y12	Z12	X13	Y13	Z13	X14	Y14	Z14	X15	Y15	Z15	X16	Y16	Z16	X17	Y17	Z17	X18	Y18	Z18	X19	Y19	Z19	X20	Y20	Z20	X21	Y21	Z21	X22	Y22	Z22	X23	Y23	Z23	X24	Y24	Z24	X25	Y25	Z25	X26	Y26	Z26	X27	Y27	Z27	X28	Y28	Z28	X29	Y29	Z29	X30	Y30	Z30	X31	Y31	Z31	X32	Y32	Z32	X33	Y33	Z33	X34	Y34	Z34	X35	Y35	Z35	X36	Y36	Z36	X37	Y37	Z37	X38	Y38	Z38	X39	Y39	Z39	X40	Y40	Z40	X41	Y41	Z41	X42	Y42	Z42	X43	Y43	Z43	X44	Y44	Z44	X45	Y45	Z45	X46	Y46	Z46	X47	Y47	Z47	X48	Y48	Z48	X49	Y49	Z49	X50	Y50	Z50	X51	Y51	Z51	X52	Y52	Z52	X53	Y53	Z53	X54	Y54	Z54	X55	Y55	Z55	X56	Y56	Z56	X57	Y57	Z57	X58	Y58	Z58	X59	Y59	Z59	X60	Y60	Z60	X61	Y61	Z61	X62	Y62	Z62	X63	Y63	Z63	X64	Y64	Z64	X65	Y65	Z65	X66	Y66	Z66	X67	Y67	Z67	X68	Y68	Z68	X69	Y69	Z69	X70	Y70	Z70	X71	Y71	Z71	X72	Y72	Z72	

222	0.921	2921.0129	906.651	56.2195	2953.4093902753607	872.775249160543	-11.354237885687493	2880.015269216473	466.08604643073494	-74.38806857772573	2940.983219501337	100.67808769200772	-179.4285865447346	2867.4610421747034	21.86032155160606	-21.61255807469631	2895.6834049289564	911.6626586369032	135.59489647755387	2839.787309945094	509.97175211938224	239.327717672242	2767.254249827656	79.4512368268237	291.7278835841936	2643.8528905509643	-5.485777093025704	173.61193935959597	2888.1347348770087	1036.125516055369	5.414384121728061	2839.5454548314524	1107.4298391792172	-38.68814208933476	2783.301055190585	1176.4460770899454	-85.6306986592585	2721.3114426584957	1233.4601131920047	-132.11086081557846	2654.4414030795087	1294.161546900136	-181.1029245868176	2592.676480856173	1349.5120398545973	-224.59737603874117	2469.624948791358	1441.3350719666664	-265.53459269585824	2684.8307475589013	1265.2505515773244	-185.63424569012895	2705.4482465816022	1238.1072180433346	-266.34174255427604	2709.558307920701	1042.1121486006311	-198.12725279664502	2703.3980617257803	931.3916352239708	-222.7215068668695	2711.151429262328	940.300622311503	-237.05200047047504	2706.449730160945	937.3352934377307	-244.1571494116051	2702.4677837617805	932.4503790408859	-247.601004035935	2698.5428048944063	925.9657194287771	-249.1852167522173	2710.490219774355	931.3767511146164	-233.43699834736896	2713.6614036055166	919.3044410343596	-242.23223621286513	2709.6491746355214	908.9419714921443	-245.88375202532816	2704.0715176865665	904.6568515911774	-247.3414057705334	2697.3751372258507	902.5651705442763	-247.99985168550933	2708.1594605695323	924.0341491970744	-228.9224104799836	2709.9936084908304	908.2881206531393	-235.05978060690566	2705.2898753780373	896.0484772510686	-238.41700898532727	2698.404384031477	890.4313401935933	-239.87458767742893	2691.0013710364324	887.9252162691224	-240.44870642309277	2706.4910101869477	919.153743823126	-225.52540182811833	2706.8595030396323	900.8029224693017	-228.12656632131097	2702.423377904216	889.2068948047666	-230.40171072279426	2695.603157048613	883.2959568780401	-231.46192548955665	2688.557811882092	880.7060575588343	-231.8379055889338	2704.0101738831822	913.8858131619883	-221.22152581133898	2703.0182338260356	893.7999020768982	-221.0138231248599	2698.93918789886	883.1466237098134	-221.80852931205993	2693.7096785639524	878.1736018874201	-222.08498961625145	2687.3219980811427	875.4986424716868	-222.13209325676422	2668.615845018464	1283.6218761926002	-143.01421733111798	2656.2107300921652	1277.5244349103486	-52.97816663189261	2721.026044622381	1078.019233299773	-114.02736497415562	2737.1379165760545	926.5692228664388	-155.53833279307946	2728.1560906269933	937.8509811365855	-167.31750772898903	2725.7151984098427	929.47474168001	-181.34532119053983	2724.6755819058026	920.5923050700992	-190.53829206503875	2724.3737039356906	910.5788785261016	-197.70932429930087	2729.101255388383	929.0815271142322	-166.1112397858143	2721.8556090098396	916.7337406124503	-181.09577701018955	2720.0049004733874	902.1258586445549	-192.7103706288285	2720.630583751153	893.1844829381297	-199.88907013430082	2722.346611143634	885.8783719047802	-205.80248907073533	2731.300850032192	920.932016696123	-164.0794770903073	2725.422515129251	904.4820011211305	-177.59562485711078	2723.720741682811	887.4991251214433	-189.95424876241606	2724.628076469565	876.2112928361759	-198.46382537276128	2726.5798451548794	867.973822081167	-204.86064376169398	2733.0102254597114	915.5281728801733	-162.24882236077391	2729.1395205576646	896.2079303306915	-172.73529596588241	2727.9905838493723	880.3652720940543	-183.1637844194924	2729.043335288212	868.9247893204563	-191.18961636810363	2730.962629808436	860.9176907259946	-197.1178331481384	2735.4229412443046	909.3529160845252	-159.80588121373847	2733.258743787716	887.9513064512428	-167.87971838205436	2732.877413217488	873.7260408599999	-175.64919023754513	2733.905880835077	864.636816925765	-181.2220826983304	2735.7560329147773	857.1153680638411	-186.3116941712547
223	0.925	2921.0129	906.651	56.2195	2953.147047916811	872.7034789255722	-11.364759195210922	2879.8057423996743	465.9937903475848	-74.31815069511039	2941.405933065085	100.77255840769512	-179.70044144205121	2867.9069430797103	21.87900000843182	-21.911139084744757	2895.9305586629644	911.7324908418129	135.60914282958373	2840.283335551975	510.0736604403	239.6559580897574	2767.3323521875645	79.58720786361665	291.8114829928613	2644.0128876218946	-5.4243339000295965	173.66370245742365	2888.2096705940066	1036.136981157486	5.399490044866731	2839.660285749857	1107.515882818271	-38.63259371024052	2783.425163861683	1176.605819829694	-85.48268544279203	2721.3726298401652	1233.6550901930818	-131.83571908981787	2654.4323354694625	1294.388394435356	-180.69151511190876	2592.6065900863014	1349.7699878063625	-224.05770682806408	2469.4961815641723	1441.5730153356703	-264.8487769358663	2684.667610885652	1265.318386410296	-185.28433695543362	2705.3683293465774	1238.2997080466846	-266.1075089709975	2709.6239700919205	1043.0419952738746	-196.99203727428602	2703.194080370774	933.7670677321914	-220.78670316739704	2710.9978061718193	942.816754736795	-235.10701976877917	2706.348355626049	939.8968438219041	-242.11531725008857	2702.381665464828	935.0405325589297	-245.4793181733213	2698.451329394932	928.5771284574759	-246.98634664124626	2710.258612063257	933.9061947236293	-231.45085407284253	2713.3389303022614	922.0092999626157	-240.10323117620814	2709.300126660096	911.7088030076179	-243.63266527640113	2703.7503330490053	907.4180765995142	-245.02317262325133	2697.1069542554956	905.2919853592942	-245.63194402048399	2707.8752900462487	926.546399002025	-226.90641682675854	2709.5923685677435	910.9621822329141	-232.88830700057855	2704.8530422942013	898.7872506100769	-236.1088172116173	2697.998003269378	893.1619520019732	-237.48370454840915	2690.6514443473816	890.6174970679491	-238.00265291123722	2706.171494622873	921.649994915966	-223.49208654703935	2706.4028415692205	903.4321316511632	-225.93922571933808	2701.929143011805	891.889267588413	-228.09186885708465	2695.1348163740226	885.96873708461	-229.0705494077174	2688.1409042175997	883.3419816286014	-229.39381642311324	2703.656716082814	916.353616542575	-219.1714352022799	2702.516258819454	896.3742709698928	-218.81247852309602	2698.3975084549024	885.757926412721	-219.5045544086707	2693.182234220982	880.7751809711707	-219.7193489417783	2686.8374379596817	878.0660035975085	-219.7184950553495	2668.8182596068036	1283.9916139798036	-142.63710548105485	2656.8278553899554	1278.2610808104341	-52.84456679295199	2721.2932825549533	1078.625262696862	-113.15222319618015	2735.9946206872023	927.3601487315052	-154.14653702695978	2727.0259811582573	938.7473436962212	-165.8036090946861	2724.623809161339	930.4328314228408	-179.63988534943323	2723.6257749827437	921.5820139371626	-188.70125297435644	2723.371068035626	911.585223278049	-195.76409841871498	2728.027631506393	929.9491391731718	-164.59805723647955	2720.930236346366	917.6663221807833	-179.3797494844895	2719.1673434383033	903.0912380631809	-190.82365896694026	2719.8157838541238	894.1676559084033	-197.89432625875386	2721.5291709830203	886.874521198532	-203.71703223221738	2730.2610952536347	921.7658603038208	-162.5768000914829	2724.5456845069593	905.3609520995708	-175.9007903309609	2722.943703396876	888.4091825396687	-188.07517111630588	2723.8803986331086	877.1405716180697	-196.45537327717406	2725.830204347847	868.9162064619491	-202.75340440365957	2731.990896183676	916.3365656757636	-160.75901472735623	2728.2847571804905	897.0348442105185	-171.08524227554165	2727.2265976233793	881.2144422019608	-181.35549502416197	2728.309685445756	869.7899194189745	-189.2577839589618	2730.228088994396	861.7939220672548	-195.09370733953344	2734.4206463543624	910.129584075793	-158.33464819834222	2732.4188799915314	888.7256413476684	-166.27380323451533	2732.1154433771994	874.5105380441343	-173.9209311503506	2733.1685553321504	865.4292510440439	-179.4058225433365	2735.019367410891	857.915503301127	-184.4148920942773
224	0.929	2921.0129	906.651	56.2195	2952.839014785632	872.6040122260154	-11.406750802248697	2879.537150719014	465.8764416655517	-74.27746006488373	2941.7132319901175	100.83054165941593	-180.0002233868259	2868.241223264681	21.860319602564424	-22.23633998983255	2896.226233175805	911.8314938075027	135.65648449805275	2840.8381128015485	510.2116028534856	240.04976007875	2767.500129448932	79.7566142021841	291.96202780192857	2644.2592364108486	-5.326150829631097	173.78343866469518	2888.2730784739224	1036.1426657123352	5.378578435614634	2839.759307228685	1107.5946065670735	-38.58090385325788	2783.539080470759	1176.7627455030472	-85.33856858057507	2721.4508942108246	1233.8683368033355	-131.5732767989128	2654.4688745842186	1294.6559569149715	-180.30193398103285	2592.6073815720533	1350.087973318075	-223.5490399285017	2469.4455309666805	1441.8769109291509	-264.20102747721825	2684.5755717040524	1265.4688824218258	-184.92984802866496	2705.1236901210054	1238.3441884358429	-265.76113520175426	2709.551095717697	1043.8322524675664	-195.74471929126392	2702.8515187638095	935.9932537542411	-218.71224129653115	2710.7517250955384	945.2461085506543	-232.96042990479353	2706.193462530419	942.4295817119714	-239.88344536789236	2702.2715111047232	937.6447615761973	-243.18498601725497	2698.3624192796046	931.2405230795532	-244.6373175841882	2709.9496840281754	936.3661346955201	-229.28556954914808	2713.0310135702575	924.7650114324923	-237.792396957522	2709.0166007107855	914.5968457611881	-241.2262700443512	2703.51017927646	910.325508120433	-242.57430641170544	2696.921727926065	908.1730500224656	-243.1593499835187	2707.5164171552005	928.9911747265076	-224.73811938195269	2709.2074596936077	913.6872634335236	-230.57641493269733	2704.4881849312264	901.6536792785249	-233.692731403635	2697.6823241364627	896.0503080632611	-235.01641765617228	2690.3943335048525	893.4762903407152	-235.5094224432863	2705.7769471366837	924.0773110589739	-221.32526834792762	2705.952930242232	906.0978479545995	-223.64468754896117	2701.4900450214595	894.6746125330454	-225.70682623516768	2694.7396149798797	888.7733361997432	-226.6362850191682	2687.799095053941	886.1178860572797	-226.93523745226682	2703.2238810126887	918.7459243406953	-217.01138315289455	2702.0078231877987	898.9664413023187	-216.5390472854134	2697.8875798628565	888.4392755487468	-217.15969336161513	2692.6994128032584	883.4673746737963	-217.33908957565012	2686.399087641491	880.7309364087976	-217.31698766640443	2669.019125841537	1284.3428103567426	-142.30168740067825	2657.460454142083	1278.9924691911765	-52.737895811973786	2721.5891206421043	1079.2140077552879	-112.29868761185294	2734.9330888138093	928.102022033171	-152.7156379863362	2725.8281886654745	939.390317650503	-164.1232516446658	2723.4588914672977	930.9996894910951	-177.68193396420315	2722.5302734308552	922.0838950881611	-186.554864205155	2722.3732349626357	912.0226969198391	-193.46479076647	2726.9809899469606	930.5316884255363	-162.9123799302181	2720.0924128386614	917.9975443650383	-177.3224474319114	2718.49148990008	903.2926560524236	-188.5073229804848	2719.195668763526	894.3423791100641	-195.44158120479764	2720.924863981833	887.0635767076911	-201.16799568852727	2729.3345107969035	922.3267451811137	-160.91730638079346	2723.8877091782024	905.6649683730991	-173.8929882201228	2722.4776536935415	888.5695689147934	-185.78937107526133	2723.488882118569	877.2677987722811	-194.0072361223703	2725.459527149538	869.0586520767783	-200.20099469405866	2731.1439794159573	916.8879713707436	-159.12746494906665	2727.7482422478365	897.3461009416275	-169.1656861898308	2726.8724615719375	881.3988917005945	-179.19894666972516	2728.0354583853828	869.9415235422227	-186.94746996789848	2729.977254360474	861.959428569822	-192.68668754400457	2733.658110736741	910.6819637081621	-156.74636989570527	2731.99372398414	889.05631019977	-164.44779689235673	2731.858524106903	874.7381887369714	-171.91469388436622	2732.980658273461	865.6322306245207	-177.2920445642475	2734.858371674452	858.1303868368855	-182.2181052617158
225	0.933	2921.0129	906.651	56.2195	2952.4803184473835	872.4730605843498	-11.483257910184456	2879.2093912394516	465.7269070347985	-74.25433211642724	2941.90298772364	100.84178132183439	-180.30816024634942	2868.4599030648287	21.797570866529686	-22.567514979357995	2896.5750323865836	911.9632949584108	135.73994260461998	2841.4456100236366	510.387847033403	240.49569565913006	2767.7598632799645	79.95939130426781	292.1603658607906	2644.595245790387	-5.193383691769487	173.95239054834965	2888.326717226799	1036.1434095406096	5.351873020033259	2839.8349157411403	1107.6581707762969	-38.53588314230014	2783.627393154634	1176.9007721288274	-85.2032177112879	2721.528588251032	1234.081529886105	-131.32804138545677	2654.531365288419	1294.9437831484756	-179.93846220484974	2592.657782021245	1350.4439829385158	-223.07550558284936	2469.4542387688634	1442.2265880920097	-263.59813041801914	2684.532334171908	1265.6777913532082	-184.57673507983955	2704.606683351721	1238.1416776344304	-265.2552565455346	2709.2285319039083	1044.3865024599147	-194.34638856884123	2702.2433341204483	937.9312549262785	-216.4400402572246	2710.2776194791145	947.4404199457625	-230.5644019679521	2705.842935313877	944.7747689085147	-237.41160090404273	2701.9913668494137	940.0967813947855	-240.66502111974847	2698.127538869243	933.7831120120021	-242.08123855565725	2709.4295778876535	938.6064052230112	-226.8894458723383	2712.5964870849734	927.4039361062734	-235.24807086028127	2708.6528718452582	917.4270649169628	-238.60820983015108	2703.202765382635	913.1950073742588	-239.9342332351383	2696.669224175559	911.0213372274941	-240.51712846434597	2706.9512282924475	931.218269717544	-222.36127376922352	2708.7013536589247	916.2960920506704	-228.06543768177173	2704.0531210718577	904.4681085176852	-231.10435699133416	2697.312222260404	898.910621031761	-232.40295374087773	2690.0828629047323	896.3126605356574	-232.8943221183099	2705.1775240864954	926.2858898218261	-218.96552788835555	2705.376155001132	908.6352879263221	-221.1787155591826	2700.9687503680884	897.3874339290497	-223.176738420373	2694.277560456069	891.5283859351329	-224.08377251665962	2687.3905480209496	888.8494625916195	-224.38202804719913	2702.58409319198	920.9140076702606	-214.67799423721303	2701.3632822504546	901.414556718893	-214.1234228477146	2697.277321025011	891.0204276720971	-214.69840890217284	2692.1274559905496	886.0757483433845	-214.86419679332454	2685.871706109593	883.3164550752176	-214.843059526032	2669.203002038339	1284.6604371307694	-142.0107926877465	2658.1058389656177	1279.7211321621999	-52.644029196981	2721.912058474183	1079.784699064356	-111.45170680515623	2733.9730747424996	928.7921336353186	-151.19363246492134	2724.6180269319725	939.8109405298264	-162.23995155285405	2722.279016052332	931.2348972142413	-175.44693129103263	2721.4439270849307	922.1783524799573	-184.08339898291268	2721.426828819382	911.9898702050452	-190.80343579068875	2726.0002473219497	930.8681839278969	-161.02172329536407	2719.3802874635794	917.8272275680187	-174.91945436598533	2718.0052868943562	902.8642965763762	-185.77207162807352	2718.7914746130614	893.8543458032101	-192.5459524979588	2720.5491232431445	886.5941107896715	-198.17077695476667	2728.5432907017384	922.6537547435654	-159.06865305385955	2723.460991988708	905.4924894701899	-171.56733024499263	2722.3216472478534	888.1160241725768	-183.1083873277918	2723.443421626174	876.7425048383485	-191.1362342359327	2725.4508415010914	868.5537937247282	-197.22052299626742	2730.47993323864	917.2200732752966	-157.32126754781214	2727.5216436184965	897.2316531449264	-166.96799514304882	2726.90595870941	881.0407878095295	-176.6997012995756	2728.188406585482	869.5149138448651	-184.26926527347803	2730.170855868423	861.5523664433341	-189.9076044251182	2733.131824675275	911.0435824558456	-155.00625742542107	2731.95411779444	889.0225715802546	-162.38820117761344	2732.0629499619326	874.5133567962141	-169.62804787642486	2733.2895090786133	865.3593731134692	-174.8818417842243	2735.213189552412	857.8759631433331	-179.72255594786856
